<?xml version="1.0" encoding="UTF-8"?>
<svg version="1.1" xmlns="http://www.w3.org/2000/svg" width="1563" height="1563">
<path d="M0 0 C17.35973174 -0.25777724 34.71886032 -0.45133126 52.0800724 -0.56993389 C60.14257684 -0.62648505 68.20388735 -0.70347953 76.265625 -0.82983398 C83.29819605 -0.94000473 90.32990201 -1.01056338 97.36331213 -1.03497344 C101.08274192 -1.04922829 104.79969857 -1.08234513 108.51832962 -1.16303062 C136.2295649 -1.74132194 136.2295649 -1.74132194 145.1944828 6.81202412 C146.49366184 8.17951605 147.74858273 9.58866901 149 11 C150.50766004 12.27835353 152.03388365 13.53589805 153.59375 14.75 C154.89691081 15.83203697 156.19901211 16.91535138 157.5 18 C162.69307784 22.30572041 167.92446142 26.54674416 173.25 30.6875 C178.31733567 34.62876108 183.23831234 38.70863429 188.11523438 42.88232422 C192.47695061 46.59820129 196.9568884 50.14038653 201.47949219 53.6574707 C207.05722951 58.00998249 212.50994028 62.50789657 217.96166992 67.01660156 C222.39653302 70.68328031 226.85786513 74.31076975 231.36328125 77.890625 C234.84407023 80.67525618 238.29524046 83.49568627 241.75 86.3125 C246.85375003 90.47255358 251.99237856 94.57972626 257.1875 98.625 C262.27363229 102.5886014 267.21634116 106.68990285 272.11499023 110.88208008 C276.47674653 114.59808865 280.95679796 118.1403162 285.47949219 121.6574707 C291.05722951 126.00998249 296.50994028 130.50789657 301.96166992 135.01660156 C306.39653302 138.68328031 310.85786513 142.31076975 315.36328125 145.890625 C318.84407023 148.67525618 322.29524046 151.49568627 325.75 154.3125 C330.85375003 158.47255358 335.99237856 162.57972626 341.1875 166.625 C346.27363229 170.5886014 351.21634116 174.68990285 356.11499023 178.88208008 C360.47953203 182.60046176 364.96238696 186.14505256 369.48828125 189.6640625 C374.22736253 193.36158745 378.87167526 197.16505782 383.5 201 C388.61469611 205.23650164 393.75886142 209.42086905 399 213.5 C404.98430609 218.15753153 410.83587026 222.96397153 416.67480469 227.80200195 C421.14818278 231.49989307 425.66821842 235.12503612 430.25 238.6875 C435.31733567 242.62876108 440.23831234 246.70863429 445.11523438 250.88232422 C449.46979227 254.59210289 453.9416948 258.12937798 458.45751953 261.63989258 C466.09963115 267.60184627 473.54160236 273.81097212 481 280 C479.19654378 283.78391082 476.85499131 286.92386032 474.25 290.1875 C473.77046875 290.79335938 473.2909375 291.39921875 472.796875 292.0234375 C468.33712875 297.63225103 463.77223337 303.15368221 459.20092773 308.67163086 C455.5017385 313.14581113 451.87584816 317.66708112 448.3125 322.25 C444.37123892 327.31733567 440.29136571 332.23831234 436.11767578 337.11523438 C432.87589579 340.92045294 429.75649715 344.80446596 426.6875 348.75 C422.58119313 354.02742499 418.3854311 359.22117721 414.125 364.375 C413.5357373 365.08793213 412.94647461 365.80086426 412.33935547 366.53540039 C411.74912598 367.24946045 411.15889648 367.96352051 410.55078125 368.69921875 C403.04938033 377.77511432 395.61323342 386.90005089 388.375 396.1875 C384.41115267 401.27344746 380.31010647 406.21633028 376.11791992 411.11499023 C372.87601554 414.92025511 369.75656773 418.80437521 366.6875 422.75 C362.58119313 428.02742499 358.3854311 433.22117721 354.125 438.375 C353.5357373 439.08793213 352.94647461 439.80086426 352.33935547 440.53540039 C351.74912598 441.24946045 351.15889648 441.96352051 350.55078125 442.69921875 C343.04938033 451.77511432 335.61323342 460.90005089 328.375 470.1875 C324.41115267 475.27344746 320.31010647 480.21633028 316.11791992 485.11499023 C312.87601554 488.92025511 309.75656773 492.80437521 306.6875 496.75 C302.58119313 502.02742499 298.3854311 507.22117721 294.125 512.375 C293.5357373 513.08793213 292.94647461 513.80086426 292.33935547 514.53540039 C291.74912598 515.24946045 291.15889648 515.96352051 290.55078125 516.69921875 C283.04938033 525.77511432 275.61323342 534.90005089 268.375 544.1875 C264.41115267 549.27344746 260.31010647 554.21633028 256.11791992 559.11499023 C252.87601554 562.92025511 249.75656773 566.80437521 246.6875 570.75 C242.58119313 576.02742499 238.3854311 581.22117721 234.125 586.375 C233.5357373 587.08793213 232.94647461 587.80086426 232.33935547 588.53540039 C231.74912598 589.24946045 231.15889648 589.96352051 230.55078125 590.69921875 C223.04938033 599.77511432 215.61323342 608.90005089 208.375 618.1875 C204.41115267 623.27344746 200.31010647 628.21633028 196.11791992 633.11499023 C192.39953824 637.47953203 188.85494744 641.96238696 185.3359375 646.48828125 C181.0595134 651.96933186 176.63406491 657.3211285 172.19873047 662.67382812 C168.50067325 667.14759518 164.87521363 671.66789721 161.3125 676.25 C157.37123892 681.31733567 153.29136571 686.23831234 149.11767578 691.11523438 C145.87589579 694.92045294 142.75649715 698.80446596 139.6875 702.75 C135.58119313 708.02742499 131.3854311 713.22117721 127.125 718.375 C126.24110596 719.44439819 126.24110596 719.44439819 125.33935547 720.53540039 C124.74912598 721.24946045 124.15889648 721.96352051 123.55078125 722.69921875 C115.23177314 732.76433187 107.0083495 742.89783345 99.0234375 753.23046875 C98.56043747 753.77791748 98.09743744 754.32536621 97.6204071 754.8894043 C95.84947832 757.09631718 95.84947832 757.09631718 94.19758606 760.16723633 C91.22556411 764.95631856 88.08244873 769.10439949 82.48365784 770.73111916 C74.84199976 771.86581163 67.12274457 771.48970444 59.42578125 771.26953125 C56.93048407 771.24525761 54.43512455 771.22676536 51.93974304 771.21379089 C45.39997608 771.16436357 38.8640163 771.03685913 32.32574463 770.89263916 C25.64304585 770.75207476 18.9591558 770.70018049 12.27539062 770.63476562 C-0.81802228 770.49571624 -13.90880785 770.27663869 -27 770 C-25.45025591 766.78551314 -23.69813015 764.20962627 -21.4375 761.4375 C-20.36628906 760.11878906 -20.36628906 760.11878906 -19.2734375 758.7734375 C-18.52320313 757.85820313 -17.77296875 756.94296875 -17 756 C-16.27039063 755.10539062 -15.54078125 754.21078125 -14.7890625 753.2890625 C-12.53003649 750.52274644 -10.26540999 747.76108944 -8 745 C-6.49971683 743.16689838 -4.99971592 741.33356573 -3.5 739.5 C5.5 728.5 5.5 728.5 7.76953125 725.7265625 C9.20499935 723.97182216 10.63993796 722.21664845 12.07421875 720.4609375 C17.31205163 714.0516115 22.57177219 707.66056804 27.83544922 701.27246094 C32.56986763 695.52544938 37.28926029 689.76644221 42 684 C43.49985696 682.16654964 44.9998594 680.33321829 46.5 678.5 C47.61375 677.13875 47.61375 677.13875 48.75 675.75 C82.5 634.5 82.5 634.5 84.76953125 631.7265625 C86.20499935 629.97182216 87.63993796 628.21664845 89.07421875 626.4609375 C94.31205163 620.0516115 99.57177219 613.66056804 104.83544922 607.27246094 C109.56986763 601.52544938 114.28926029 595.76644221 119 590 C120.49985696 588.16654964 121.9998594 586.33321829 123.5 584.5 C124.2425 583.5925 124.985 582.685 125.75 581.75 C159.5 540.5 159.5 540.5 161.76953125 537.7265625 C163.20499935 535.97182216 164.63993796 534.21664845 166.07421875 532.4609375 C171.31205163 526.0516115 176.57177219 519.66056804 181.83544922 513.27246094 C186.56986763 507.52544938 191.28926029 501.76644221 196 496 C197.49985696 494.16654964 198.9998594 492.33321829 200.5 490.5 C201.2425 489.5925 201.985 488.685 202.75 487.75 C236.5 446.5 236.5 446.5 238.76953125 443.7265625 C240.20499935 441.97182216 241.63993796 440.21664845 243.07421875 438.4609375 C248.31205163 432.0516115 253.57177219 425.66056804 258.83544922 419.27246094 C263.56986763 413.52544938 268.28926029 407.76644221 273 402 C274.49985696 400.16654964 275.9998594 398.33321829 277.5 396.5 C278.2425 395.5925 278.985 394.685 279.75 393.75 C313.5 352.5 313.5 352.5 315.76953125 349.7265625 C317.20499935 347.97182216 318.63993796 346.21664845 320.07421875 344.4609375 C325.31205163 338.0516115 330.57177219 331.66056804 335.83544922 325.27246094 C339.86746236 320.37808445 343.8951357 315.48041383 347.8984375 310.5625 C349.41107635 308.71809278 350.93902538 306.88620334 352.4765625 305.0625 C353.28867187 304.093125 354.10078125 303.12375 354.9375 302.125 C355.66839844 301.26132812 356.39929688 300.39765625 357.15234375 299.5078125 C358.95726633 297.05800215 360.0188258 294.86646703 361 292 C360.18660156 291.36835937 359.37320312 290.73671875 358.53515625 290.0859375 C351.77726272 284.81734278 345.09913245 279.46637271 338.5 274 C333.38523436 269.76357375 328.2411012 265.57918751 323 261.5 C316.92202265 256.76866679 310.97277719 251.89119525 305.03735352 246.98266602 C300.60790114 243.32030577 296.15166657 239.69747855 291.65234375 236.12109375 C288.08471342 233.26804033 284.54304387 230.38349326 281 227.5 C275.90919767 223.35774334 270.8043999 219.23505026 265.671875 215.14453125 C262.87710764 212.90136271 260.09824944 210.6394877 257.32055664 208.37524414 C251.60749951 203.71843906 245.8755903 199.09395749 240.0625 194.5625 C233.38110752 189.34833748 226.8475259 183.96294914 220.31640625 178.5625 C211.17685845 171.00785683 201.95891046 163.5483205 192.6875 156.15625 C188.4020044 152.71788725 184.1446273 149.24498273 179.8828125 145.77734375 C176.26680281 142.83677738 172.64426075 139.90555924 169 137 C163.93297685 132.96007614 158.90945383 128.86728624 153.8828125 124.77734375 C150.26680281 121.83677738 146.64426075 118.90555924 143 116 C137.93297685 111.96007614 132.90945383 107.86728624 127.8828125 103.77734375 C124.26680281 100.83677738 120.64426075 97.90555924 117 95 C111.93297685 90.96007614 106.90945383 86.86728624 101.8828125 82.77734375 C98.26680281 79.83677738 94.64426075 76.90555924 91 74 C85.93297685 69.96007614 80.90945383 65.86728624 75.8828125 61.77734375 C72.26680281 58.83677738 68.64426075 55.90555924 65 53 C59.93297685 48.96007614 54.90945383 44.86728624 49.8828125 40.77734375 C45.49679802 37.21060367 41.0928099 33.66792735 36.671875 30.14453125 C32.4919772 26.78961328 28.34422659 23.39520326 24.19042969 20.00805664 C19.0199192 15.80258588 13.79667043 11.66943529 8.51660156 7.60229492 C5.46586007 5.23361861 2.70280018 2.75394012 0 0 Z " fill="#00016D" transform="translate(202,523)"/>
<path d="M0 0 C3.86225539 1.67801873 6.98678695 4.20339947 10.25 6.8125 C10.8584375 7.29460938 11.466875 7.77671875 12.09375 8.2734375 C17.44451895 12.52577624 22.7433566 16.84210466 28.03833008 21.16357422 C32.30090182 24.63746499 36.60026637 28.05744896 40.9375 31.4375 C46.94295251 36.12065104 52.81850309 40.95081655 58.68334961 45.80834961 C63.07401729 49.43688987 67.50506644 53.0016337 72 56.5 C77.24114385 60.57913505 82.38516509 64.76366072 87.5 69 C93.19144463 73.71303848 98.93324647 78.34453001 104.76171875 82.88671875 C109.91330455 86.90918986 114.9784561 91.0334778 120.04150391 95.16650391 C124.30331048 98.63904898 128.60140148 102.05833357 132.9375 105.4375 C138.94295251 110.12065104 144.81850309 114.95081655 150.68334961 119.80834961 C155.07401729 123.43688987 159.50506644 127.0016337 164 130.5 C169.24114385 134.57913505 174.38516509 138.76366072 179.5 143 C185.19144463 147.71303848 190.93324647 152.34453001 196.76171875 156.88671875 C201.91330455 160.90918986 206.9784561 165.0334778 212.04150391 169.16650391 C216.30331048 172.63904898 220.60140148 176.05833357 224.9375 179.4375 C230.94295251 184.12065104 236.81850309 188.95081655 242.68334961 193.80834961 C247.07401729 197.43688987 251.50506644 201.0016337 256 204.5 C261.24114385 208.57913505 266.38516509 212.76366072 271.5 217 C277.19144463 221.71303848 282.93324647 226.34453001 288.76171875 230.88671875 C293.91330455 234.90918986 298.9784561 239.0334778 304.04150391 243.16650391 C308.30331048 246.63904898 312.60140148 250.05833357 316.9375 253.4375 C322.94295251 258.12065104 328.81850309 262.95081655 334.68334961 267.80834961 C339.07401729 271.43688987 343.50506644 275.0016337 348 278.5 C353.24114385 282.57913505 358.38516509 286.76366072 363.5 291 C369.19144463 295.71303848 374.93324647 300.34453001 380.76171875 304.88671875 C385.91330455 308.90918986 390.9784561 313.0334778 396.04150391 317.16650391 C400.30331048 320.63904898 404.60140148 324.05833357 408.9375 327.4375 C414.94295251 332.12065104 420.81850309 336.95081655 426.68334961 341.80834961 C431.07401729 345.43688987 435.50506644 349.0016337 440 352.5 C445.24114385 356.57913505 450.38516509 360.76366072 455.5 365 C461.19144463 369.71303848 466.93324647 374.34453001 472.76171875 378.88671875 C477.91330455 382.90918986 482.9784561 387.0334778 488.04150391 391.16650391 C492.30331048 394.63904898 496.60140148 398.05833357 500.9375 401.4375 C506.94295251 406.12065104 512.81850309 410.95081655 518.68334961 415.80834961 C523.07401729 419.43688987 527.50506644 423.0016337 532 426.5 C537.24114385 430.57913505 542.38516509 434.76366072 547.5 439 C552.6374538 443.25428323 557.80260261 447.46041321 563.0625 451.5625 C568.04386252 455.44736312 572.97590705 459.38681454 577.875 463.375 C578.53991455 463.91616455 579.2048291 464.4573291 579.88989258 465.01489258 C583.31359361 467.8043149 586.73237036 470.59967379 590.1484375 473.3984375 C591.51529659 474.51602678 592.88248011 475.63321939 594.25 476.75 C594.9085498 477.28842529 595.56709961 477.82685059 596.24560547 478.3815918 C601.35143668 482.53159205 606.59021863 486.46027639 611.9375 490.29296875 C612.618125 490.85628906 613.29875 491.41960937 614 492 C614 492.66 614 493.32 614 494 C596.75338313 494.25769464 579.50737237 494.45129115 562.25926685 494.56993389 C554.24941724 494.62650242 546.24076811 494.7035306 538.23168945 494.82983398 C531.24563979 494.93995105 524.26045991 495.01055081 517.27356642 495.03497344 C513.57819599 495.04923729 509.88531229 495.0824126 506.1907444 495.16303062 C479.51869508 495.72297612 479.51869508 495.72297612 471.82202148 488.61962891 C470.16219529 486.79276415 468.54415159 484.92563072 467 483 C465.09529557 481.32104127 465.09529557 481.32104127 463.265625 480.01171875 C456.91560606 475.11759793 450.67348715 470.11511565 444.5 465 C439.36263606 460.7456115 434.19739407 456.5395842 428.9375 452.4375 C420.50792898 445.86344934 412.23998892 439.09350292 403.95898438 432.33398438 C396.45320708 426.20990338 388.92374878 420.12576332 381.28857422 414.16357422 C376.12351988 410.12065899 371.03982866 405.98138149 365.95874023 401.83374023 C361.69689091 398.36106518 357.39868899 394.94173694 353.0625 391.5625 C347.05704749 386.87934896 341.18149691 382.04918345 335.31665039 377.19165039 C330.92598271 373.56311013 326.49493356 369.9983663 322 366.5 C316.75885615 362.42086495 311.61483491 358.23633928 306.5 354 C300.81137381 349.28929545 295.07221946 344.66035975 289.24707031 340.11987305 C283.32120385 335.49209395 277.49951957 330.738701 271.671875 325.98828125 C268.79387546 323.64278467 265.90344164 321.31398453 263 319 C259.42120755 316.14777448 255.86737282 313.26647524 252.3203125 310.375 C246.023772 305.24272548 239.69257157 300.16414533 233.29003906 295.16479492 C228.12459131 291.12135016 223.04032265 286.98178473 217.95874023 282.83374023 C213.69689091 279.36106518 209.39868899 275.94173694 205.0625 272.5625 C199.05704749 267.87934896 193.18149691 263.04918345 187.31665039 258.19165039 C182.92598271 254.56311013 178.49493356 250.9983663 174 247.5 C168.75885615 243.42086495 163.61483491 239.23633928 158.5 235 C152.81137381 230.28929545 147.07221946 225.66035975 141.24707031 221.11987305 C135.32120385 216.49209395 129.49951957 211.738701 123.671875 206.98828125 C120.79387546 204.64278467 117.90344164 202.31398453 115 200 C111.42120755 197.14777448 107.86737282 194.26647524 104.3203125 191.375 C98.023772 186.24272548 91.69257157 181.16414533 85.29003906 176.16479492 C80.12459131 172.12135016 75.04032265 167.98178473 69.95874023 163.83374023 C65.69689091 160.36106518 61.39868899 156.94173694 57.0625 153.5625 C51.80244208 149.46061997 46.63751528 145.25419893 41.5 141 C34.09835143 134.87137461 26.60321444 128.87662949 19 123 C18.25363281 122.40574219 17.50726562 121.81148437 16.73828125 121.19921875 C15.07759412 119.81071246 15.07759412 119.81071246 13 120 C11.33697684 121.94327336 9.78750047 123.89769657 8.25 125.9375 C3.873702 131.63074978 -0.60566131 137.22076782 -5.1875 142.75 C-9.46524079 147.92124726 -13.71542373 153.10859418 -17.890625 158.36328125 C-20.67525684 161.84407105 -23.49574972 165.29518783 -26.3125 168.75 C-30.40577197 173.77350767 -34.45381992 178.82669754 -38.4375 183.9375 C-43.11719805 189.93839292 -47.94358482 195.80963399 -52.79736328 201.67016602 C-57.00261087 206.75887383 -61.11137956 211.91349234 -65.17236328 217.11767578 C-68.57515461 221.47440345 -72.05120943 225.76517612 -75.5625 230.03515625 C-83.18074968 239.30158494 -90.73224316 248.61564328 -98.12109375 258.06616211 C-101.54383587 262.43751771 -105.03610527 266.74680837 -108.5625 271.03515625 C-116.0590344 280.15353704 -123.4966463 289.31281593 -130.75195312 298.62451172 C-135.10768794 304.18929484 -139.61117107 309.62999205 -144.14233398 315.05249023 C-146.81229126 318.26436762 -149.31595454 321.44351753 -151.6015625 324.94140625 C-154 328 -154 328 -156.36318493 328.6836462 C-158.80298778 328.97636332 -161.1317134 329.12319555 -163.58747864 329.12025452 C-164.47783813 329.12162918 -165.36819763 329.12300385 -166.28553772 329.12442017 C-167.24938889 329.12082489 -168.21324005 329.11722961 -169.20629883 329.11352539 C-170.23115387 329.11367142 -171.25600891 329.11381744 -172.31192017 329.1139679 C-175.69364552 329.11327218 -179.07531554 329.1054957 -182.45703125 329.09765625 C-184.80401072 329.09579086 -187.15099058 329.09436753 -189.49797058 329.09336853 C-195.67110268 329.08955289 -201.8442112 329.07973071 -208.01733398 329.06866455 C-214.31819337 329.05842996 -220.61905657 329.05386652 -226.91992188 329.04882812 C-239.27995827 329.03810761 -251.63997717 329.0210426 -264 329 C-263.05608581 327.73843341 -262.1117479 326.47718385 -261.16723633 325.21606445 C-260.64140457 324.51367142 -260.11557281 323.81127838 -259.57380676 323.08760071 C-257.31520439 320.09164211 -255.00887808 317.13494413 -252.6875 314.1875 C-252.2116748 313.58276855 -251.73584961 312.97803711 -251.24560547 312.35498047 C-247.69194024 307.85081969 -244.08155234 303.39627169 -240.4375 298.96484375 C-233.39446671 290.3980773 -226.38220345 281.80852369 -219.5625 273.0625 C-214.87916452 267.05718586 -210.04918884 261.18150341 -205.19165039 255.31665039 C-201.56311013 250.92598271 -197.9983663 246.49493356 -194.5 242 C-189.8402126 236.01279542 -185.03067485 230.15906531 -180.19140625 224.31640625 C-176.56299073 219.92578528 -172.99829576 215.49484293 -169.5 211 C-165.42086604 205.75885756 -161.23638682 200.61479473 -157 195.5 C-152.1895001 189.69185874 -147.4670584 183.82778059 -142.82763672 177.88232422 C-139.42484539 173.52559655 -135.94879057 169.23482388 -132.4375 164.96484375 C-125.39446671 156.3980773 -118.38220345 147.80852369 -111.5625 139.0625 C-106.87916452 133.05718586 -102.04918884 127.18150341 -97.19165039 121.31665039 C-93.56311013 116.92598271 -89.9983663 112.49493356 -86.5 108 C-81.8402126 102.01279542 -77.03067485 96.15906531 -72.19140625 90.31640625 C-68.56299073 85.92578528 -64.99829576 81.49484293 -61.5 77 C-56.8402126 71.01279542 -52.03067485 65.15906531 -47.19140625 59.31640625 C-43.56299073 54.92578528 -39.99829576 50.49484293 -36.5 46 C-32.42086155 40.75885178 -28.23621445 35.61494272 -24 30.5 C-15.74603549 20.52795972 -7.70120699 10.40703647 0 0 Z " fill="#00016D" transform="translate(786,799)"/>
<path d="M0 0 C26.8815373 -0.12846928 53.75147428 0.15062157 80.62866211 0.63476562 C85.13637756 0.71495937 89.64406947 0.78385489 94.15209961 0.84375 C99.69232434 0.91745507 105.2319323 1.00997674 110.77162743 1.11612701 C112.8562588 1.15297176 114.94101716 1.18327585 117.02584267 1.20668793 C119.91412354 1.24045501 122.80096959 1.29846382 125.6887207 1.36230469 C126.53271927 1.36662506 127.37671783 1.37094543 128.24629211 1.37539673 C135.60174482 1.58311912 140.29517862 4.32156116 145.91015625 9.06640625 C146.58240234 9.6284375 147.25464844 10.19046875 147.94726562 10.76953125 C148.64529297 11.36121094 149.34332031 11.95289063 150.0625 12.5625 C151.57313732 13.82551333 153.08487044 15.08721709 154.59765625 16.34765625 C155.34289551 16.96914551 156.08813477 17.59063477 156.85595703 18.23095703 C159.86089603 20.71032255 162.92281923 23.11131882 166 25.5 C171.24170166 29.5783938 176.38519071 33.76368194 181.5 38 C187.18862619 42.71070455 192.92778054 47.33964025 198.75292969 51.88012695 C204.67879615 56.50790605 210.50048043 61.261299 216.328125 66.01171875 C219.20612454 68.35721533 222.09655836 70.68601547 225 73 C228.57879245 75.85222552 232.13262718 78.73352476 235.6796875 81.625 C241.4151509 86.29994375 247.16845363 90.94530641 253 95.5 C261.4462166 102.09988471 269.73752238 108.88814028 278.04101562 115.66601562 C284.98533222 121.33199206 291.93779253 126.98126873 299 132.5 C307.44603909 139.10012047 315.73751558 145.88813473 324.04101562 152.66601562 C330.98533222 158.33199206 337.93779253 163.98126873 345 169.5 C353.44603909 176.10012047 361.73751558 182.88813473 370.04101562 189.66601562 C376.98533222 195.33199206 383.93779253 200.98126873 391 206.5 C399.44603909 213.10012047 407.73751558 219.88813473 416.04101562 226.66601562 C422.98533222 232.33199206 429.93779253 237.98126873 437 243.5 C445.44603909 250.10012047 453.73751558 256.88813473 462.04101562 263.66601562 C480.09842283 279.74008273 480.09842283 279.74008273 500 293 C500.27078369 292.41460449 500.54156738 291.82920898 500.82055664 291.22607422 C501.99171762 289.01563212 503.26470859 287.29431109 504.87109375 285.3828125 C505.43957031 284.70089844 506.00804687 284.01898437 506.59375 283.31640625 C507.2021875 282.59324219 507.810625 281.87007812 508.4375 281.125 C512.8681185 275.80644568 517.25378503 270.46707174 521.5 265 C526.15912293 259.01229566 530.96934431 253.15904219 535.80859375 247.31640625 C539.43700927 242.92578528 543.00170424 238.49484293 546.5 234 C550.57913396 228.75885756 554.76361318 223.61479473 559 218.5 C563.8104999 212.69185874 568.5329416 206.82778059 573.17236328 200.88232422 C576.57515461 196.52559655 580.05120943 192.23482388 583.5625 187.96484375 C590.60553329 179.3980773 597.61779655 170.80852369 604.4375 162.0625 C609.12083548 156.05718586 613.95081116 150.18150341 618.80834961 144.31665039 C622.43688987 139.92598271 626.0016337 135.49493356 629.5 131 C634.1597874 125.01279542 638.96932515 119.15906531 643.80859375 113.31640625 C647.43700927 108.92578528 651.00170424 104.49484293 654.5 100 C658.57913396 94.75885756 662.76361318 89.61479473 667 84.5 C671.8104999 78.69185874 676.5329416 72.82778059 681.17236328 66.88232422 C684.57515461 62.52559655 688.05120943 58.23482388 691.5625 53.96484375 C699.05740785 44.84844141 706.49129312 35.6897348 713.74755859 26.38208008 C718.17083545 20.73351209 722.73709514 15.20480678 727.31811523 9.68383789 C727.88344971 9.00184326 728.44878418 8.31984863 729.03125 7.6171875 C729.53205078 7.01503418 730.03285156 6.41288086 730.54882812 5.79248047 C732.0531533 4.00643446 732.0531533 4.00643446 733.31189442 1.9180336 C735 0 735 0 737.05581951 -0.49219131 C738.24631515 -0.48666056 738.24631515 -0.48666056 739.46086121 -0.48101807 C740.83014015 -0.48926605 740.83014015 -0.48926605 742.2270813 -0.49768066 C743.7257222 -0.47610901 743.7257222 -0.47610901 745.25463867 -0.45410156 C746.83537422 -0.45497772 746.83537422 -0.45497772 748.44804382 -0.45587158 C751.93835153 -0.45308035 755.42780986 -0.42193817 758.91796875 -0.390625 C761.335063 -0.38316634 763.75216329 -0.37747164 766.16926575 -0.37347412 C772.53657678 -0.35818845 778.90352386 -0.31888087 785.27069092 -0.2746582 C791.76569698 -0.23376901 798.26076175 -0.21547666 804.75585938 -0.1953125 C817.50406168 -0.15238988 830.2520115 -0.08486967 843 0 C842.06422798 1.25501591 841.12741686 2.50925708 840.19018555 3.76318359 C839.66861374 4.46172455 839.14704193 5.1602655 838.60966492 5.87997437 C836.09229704 9.19549946 833.45430493 12.40841582 830.8125 15.625 C826.67426714 20.68795128 822.58060559 25.77872751 818.5625 30.9375 C813.87952315 36.94308392 809.04917858 42.81850897 804.19165039 48.68334961 C800.56311013 53.07401729 796.9983663 57.50506644 793.5 62 C789.42086495 67.24114385 785.23633928 72.38516509 781 77.5 C776.28696152 83.19144463 771.65546999 88.93324647 767.11328125 94.76171875 C763.09081014 99.91330455 758.9665222 104.9784561 754.83349609 110.04150391 C751.36095102 114.30331048 747.94166643 118.60140148 744.5625 122.9375 C739.87934896 128.94295251 735.04918345 134.81850309 730.19165039 140.68334961 C726.56311013 145.07401729 722.9983663 149.50506644 719.5 154 C715.42086495 159.24114385 711.23633928 164.38516509 707 169.5 C702.74571677 174.6374538 698.53958679 179.80260261 694.4375 185.0625 C687.86344934 193.49207102 681.09350292 201.76001108 674.33398438 210.04101562 C668.66800794 216.98533222 663.01873127 223.93779253 657.5 231 C650.89987953 239.44603909 644.11186527 247.73751558 637.33398438 256.04101562 C631.66800794 262.98533222 626.01873127 269.93779253 620.5 277 C613.89987953 285.44603909 607.11186527 293.73751558 600.33398438 302.04101562 C594.66800794 308.98533222 589.01873127 315.93779253 583.5 323 C576.89987953 331.44603909 570.11186527 339.73751558 563.33398438 348.04101562 C557.66800794 354.98533222 552.01873127 361.93779253 546.5 369 C540.99216391 376.04826512 535.35271059 382.98539698 529.69677734 389.91503906 C527.93356657 392.08163187 526.17875159 394.25480289 524.42578125 396.4296875 C523.54962158 397.51467529 523.54962158 397.51467529 522.65576172 398.62158203 C521.53976634 400.00397017 520.42541223 401.38768549 519.31298828 402.77294922 C516.68440901 406.02336091 514.0379152 409.11507333 511 412 C502.142511 405.09392655 493.37744296 398.08479824 484.671875 390.98828125 C481.79387546 388.64278467 478.90344164 386.31398453 476 384 C472.42080007 381.14744972 468.86657196 378.26580822 465.3190918 375.37402344 C459.48066312 370.61510128 453.62195241 365.88881025 447.6875 361.25 C442.72854525 357.37301157 437.82702729 353.43577134 432.96484375 349.4375 C424.37563175 342.37601345 415.76222318 335.34615347 407 328.5 C398.55390798 321.89994974 390.26248242 315.11186364 381.95898438 308.33398438 C374.3353154 302.11371372 366.68404176 295.93844806 358.93261719 289.87792969 C354.5616464 286.45554194 350.2527884 282.96356315 345.96484375 279.4375 C336.69841506 271.81925032 327.38435672 264.26775684 317.93383789 256.87890625 C313.56248229 253.45616413 309.25319163 249.96389473 304.96484375 246.4375 C296.37563175 239.37601345 287.76222318 232.34615347 279 225.5 C270.55390798 218.89994974 262.26248242 212.11186364 253.95898438 205.33398438 C246.3353154 199.11371372 238.68404176 192.93844806 230.93261719 186.87792969 C226.5616464 183.45554194 222.2527884 179.96356315 217.96484375 176.4375 C208.69841506 168.81925032 199.38435672 161.26775684 189.93383789 153.87890625 C185.56248229 150.45616413 181.25319163 146.96389473 176.96484375 143.4375 C168.37563175 136.37601345 159.76222318 129.34615347 151 122.5 C142.55390798 115.89994974 134.26248242 109.11186364 125.95898438 102.33398438 C118.3353154 96.11371372 110.68404176 89.93844806 102.93261719 83.87792969 C98.5616464 80.45554194 94.2527884 76.96356315 89.96484375 73.4375 C81.37563175 66.37601345 72.76222318 59.34615347 64 52.5 C55.55390798 45.89994974 47.26248242 39.11186364 38.95898438 32.33398438 C31.91126228 26.58363778 24.85248636 20.8539441 17.6875 15.25 C4.30714242 4.77973723 4.30714242 4.77973723 0 1 C0 0.67 0 0.34 0 0 Z " fill="#00016D" transform="translate(163,270)"/>
<path d="M0 0 C1.37669609 -0.00372368 1.37669609 -0.00372368 2.78120422 -0.00752258 C5.81388 -0.00844033 8.84435651 0.03338591 11.87670898 0.07592773 C13.99315028 0.08458901 16.10960324 0.09073086 18.22605896 0.09446716 C23.80316119 0.11170233 29.379344 0.16579565 34.95611572 0.22674561 C39.48179748 0.27015994 44.00740061 0.28786398 48.53324986 0.30401707 C53.96028855 0.32374219 59.38724408 0.35419629 64.81420898 0.38842773 C66.34937762 0.39806643 66.34937762 0.39806643 67.91555977 0.40789986 C88.66742811 0.55822255 88.66742811 0.55822255 98.81030273 1.69702148 C94.73766626 7.21216567 90.51263131 12.55644273 86.12280273 17.82202148 C81.71271711 23.13998028 77.36207079 28.49189922 73.12280273 33.94702148 C69.1107516 39.10474264 64.96135734 44.1216318 60.71923828 49.09130859 C57.40796331 52.97428895 54.19454623 56.92066006 51.02514648 60.91967773 C48.20930494 64.45065364 45.35228057 67.94726267 42.49780273 71.44702148 C38.33765495 76.55069558 34.23062756 81.68944201 30.18530273 86.88452148 C26.15063168 92.06085935 21.98008239 97.09961001 17.71948242 102.09106445 C14.40572314 105.9768558 11.19069897 109.92685291 8.01733398 113.92749023 C5.24156862 117.4107073 2.43329486 120.86680345 -0.37719727 124.32202148 C-0.93117188 125.00353271 -1.48514648 125.68504395 -2.0559082 126.38720703 C-4.87750188 129.85747554 -7.70189676 133.32543151 -10.52954102 136.79077148 C-15.68262532 143.11171522 -20.80246139 149.45111968 -25.81469727 155.88452148 C-29.84951765 161.06074723 -34.01991197 166.0996034 -38.28051758 171.09106445 C-41.59427686 174.9768558 -44.80930103 178.92685291 -47.98266602 182.92749023 C-50.75843138 186.4107073 -53.56670514 189.86680345 -56.37719727 193.32202148 C-56.93117188 194.00353271 -57.48514648 194.68504395 -58.0559082 195.38720703 C-60.87750188 198.85747554 -63.70189676 202.32543151 -66.52954102 205.79077148 C-71.68262532 212.11171522 -76.80246139 218.45111968 -81.81469727 224.88452148 C-85.84951765 230.06074723 -90.01991197 235.0996034 -94.28051758 240.09106445 C-97.59427686 243.9768558 -100.80930103 247.92685291 -103.98266602 251.92749023 C-106.75843138 255.4107073 -109.56670514 258.86680345 -112.37719727 262.32202148 C-112.93117188 263.00353271 -113.48514648 263.68504395 -114.0559082 264.38720703 C-116.87750188 267.85747554 -119.70189676 271.32543151 -122.52954102 274.79077148 C-127.68262532 281.11171522 -132.80246139 287.45111968 -137.81469727 293.88452148 C-141.84951765 299.06074723 -146.01991197 304.0996034 -150.28051758 309.09106445 C-153.59427686 312.9768558 -156.80930103 316.92685291 -159.98266602 320.92749023 C-162.75843138 324.4107073 -165.56670514 327.86680345 -168.37719727 331.32202148 C-168.93117188 332.00353271 -169.48514648 332.68504395 -170.0559082 333.38720703 C-172.87750188 336.85747554 -175.70189676 340.32543151 -178.52954102 343.79077148 C-183.68262532 350.11171522 -188.80246139 356.45111968 -193.81469727 362.88452148 C-197.84763196 368.05832811 -202.01703727 373.09392009 -206.27392578 378.08447266 C-213.90286854 387.03530935 -221.0466541 396.35837079 -228.18969727 405.69702148 C-221.44305247 412.51431178 -214.28555482 418.70052992 -206.76782227 424.65014648 C-204.17998555 426.704732 -201.61931853 428.78881422 -199.06469727 430.88452148 C-194.4504653 434.66871456 -189.82279528 438.43595305 -185.18969727 442.19702148 C-179.81548348 446.56036231 -174.45079332 450.93491869 -169.09594727 455.32202148 C-165.46664443 458.28790337 -161.82840395 461.2426898 -158.18969727 464.19702148 C-152.81552275 468.56041085 -147.45079355 472.9349185 -142.09594727 477.32202148 C-138.46664443 480.28790337 -134.82840395 483.2426898 -131.18969727 486.19702148 C-125.81552275 490.56041085 -120.45079355 494.9349185 -115.09594727 499.32202148 C-111.46664443 502.28790337 -107.82840395 505.2426898 -104.18969727 508.19702148 C-98.81552275 512.56041085 -93.45079355 516.9349185 -88.09594727 521.32202148 C-84.46664443 524.28790337 -80.82840395 527.2426898 -77.18969727 530.19702148 C-71.81552275 534.56041085 -66.45079355 538.9349185 -61.09594727 543.32202148 C-57.46664443 546.28790337 -53.82840395 549.2426898 -50.18969727 552.19702148 C-44.81552275 556.56041085 -39.45079355 560.9349185 -34.09594727 565.32202148 C-30.46664443 568.28790337 -26.82840395 571.2426898 -23.18969727 574.19702148 C-17.81552275 578.56041085 -12.45079355 582.9349185 -7.09594727 587.32202148 C-3.46664443 590.28790337 0.17159605 593.2426898 3.81030273 596.19702148 C8.31674482 599.85588321 12.82006377 603.51827149 17.31030273 607.19702148 C24.4588455 613.05262901 31.63637099 618.87257528 38.81030273 624.69702148 C46.85201166 631.22600764 54.89137058 637.75741442 62.90405273 644.32202148 C66.53335557 647.28790337 70.17159605 650.2426898 73.81030273 653.19702148 C79.18447725 657.56041085 84.54920645 661.9349185 89.90405273 666.32202148 C93.53335557 669.28790337 97.17159605 672.2426898 100.81030273 675.19702148 C106.18447725 679.56041085 111.54920645 683.9349185 116.90405273 688.32202148 C119.83721098 690.71901102 122.77595111 693.10897968 125.71655273 695.49682617 C127.7796838 697.17215788 129.84187789 698.848638 131.90405273 700.52514648 C134.35831319 702.51983464 136.81646109 704.50950578 139.27905273 706.49389648 C140.27936523 707.30342773 141.27967773 708.11295898 142.31030273 708.94702148 C143.18686523 709.65342773 144.06342773 710.35983398 144.96655273 711.08764648 C145.57499023 711.61874023 146.18342773 712.14983398 146.81030273 712.69702148 C146.81030273 713.02702148 146.81030273 713.35702148 146.81030273 713.69702148 C132.46806035 713.79940628 118.15021795 713.47769956 103.81420898 713.07592773 C101.44490369 713.0109466 99.07559515 712.94608375 96.70628357 712.8813324 C91.77549516 712.7459688 86.84476327 712.60873256 81.9140625 712.47021484 C75.61797766 712.29355645 69.32175786 712.12234524 63.02548313 711.95260715 C58.14649111 711.82035359 53.26759295 711.68486229 48.38871574 711.54844475 C46.06727995 711.48398602 43.74581413 711.42059867 41.42431831 711.35833931 C38.17860891 711.27087991 34.93305432 711.17895295 31.6875 711.0859375 C30.74544708 711.06148056 29.80339417 711.03702362 28.83279419 711.01182556 C24.16274473 710.87337806 19.50421164 710.64963713 14.84458923 710.30503845 C13.96154586 710.24029799 13.07850248 710.17555754 12.16870022 710.10885525 C8.17456989 709.41138261 6.42616832 707.61962108 3.49780273 704.82202148 C2.39468387 703.80774107 1.28913467 702.79609865 0.18139648 701.78686523 C-0.37435059 701.26979004 -0.93009766 700.75271484 -1.50268555 700.2199707 C-4.19674025 697.7879138 -7.06265579 695.593978 -9.93969727 693.38452148 C-16.01161233 688.66997847 -21.94456757 683.80029719 -27.86352539 678.89575195 C-32.33729245 675.19769473 -36.85759448 671.57223511 -41.43969727 668.00952148 C-46.50703293 664.06826041 -51.4280096 659.98838719 -56.30493164 655.81469727 C-60.66943341 652.09644712 -65.15217466 648.55189861 -69.67797852 645.03295898 C-75.15902913 640.75653488 -80.51082577 636.33108639 -85.86352539 631.89575195 C-90.33729245 628.19769473 -94.85759448 624.57223511 -99.43969727 621.00952148 C-104.50703293 617.06826041 -109.4280096 612.98838719 -114.30493164 608.81469727 C-118.66664787 605.0988202 -123.14658567 601.55663495 -127.66918945 598.03955078 C-133.24692677 593.68703899 -138.69963754 589.18912491 -144.15136719 584.68041992 C-148.58623029 581.01374117 -153.0475624 577.38625174 -157.55297852 573.80639648 C-161.03376749 571.0217653 -164.48493772 568.20133521 -167.93969727 565.38452148 C-173.04344729 561.2244679 -178.18207582 557.11729522 -183.37719727 553.07202148 C-188.46332955 549.10842008 -193.40603843 545.00711864 -198.3046875 540.81494141 C-202.66922929 537.09655973 -207.15208423 533.55196893 -211.67797852 530.03295898 C-217.15902913 525.75653488 -222.51082577 521.33108639 -227.86352539 516.89575195 C-232.33729245 513.19769473 -236.85759448 509.57223511 -241.43969727 506.00952148 C-246.50703293 502.06826041 -251.4280096 497.98838719 -256.30493164 493.81469727 C-260.66664787 490.0988202 -265.14658567 486.55663495 -269.66918945 483.03955078 C-275.24692677 478.68703899 -280.69963754 474.18912491 -286.15136719 469.68041992 C-290.58623029 466.01374117 -295.0475624 462.38625174 -299.55297852 458.80639648 C-303.03376749 456.0217653 -306.48493772 453.20133521 -309.93969727 450.38452148 C-315.04345391 446.22446251 -320.18227299 442.11755506 -325.37719727 438.07202148 C-330.1223197 434.37067688 -334.78189767 430.58301425 -339.37719727 426.69702148 C-339.91820068 426.2398877 -340.4592041 425.78275391 -341.01660156 425.31176758 C-343.50347865 423.19309606 -345.92961416 421.0580705 -348.18969727 418.69702148 C-341.71856038 410.36378195 -335.12280708 402.15063616 -328.39111328 394.02636719 C-324.69209474 389.55159281 -321.06576291 385.03022007 -317.50219727 380.44702148 C-313.56093619 375.37968582 -309.48106298 370.45870915 -305.30737305 365.58178711 C-302.06559306 361.77656855 -298.94619441 357.89255552 -295.87719727 353.94702148 C-291.7708904 348.66959649 -287.57512837 343.47584427 -283.31469727 338.32202148 C-282.72543457 337.60908936 -282.13617187 336.89615723 -281.52905273 336.16162109 C-280.6437085 335.09053101 -280.6437085 335.09053101 -279.74047852 333.99780273 C-272.23907422 324.92190309 -264.80302739 315.79689964 -257.56469727 306.50952148 C-253.52977472 301.33337176 -249.35948661 296.29444431 -245.09887695 291.30297852 C-241.78747645 287.41995312 -238.57401209 283.4734729 -235.40454102 279.47436523 C-232.58869947 275.94338933 -229.7316751 272.44678029 -226.87719727 268.94702148 C-222.71704948 263.84334739 -218.61002209 258.70460096 -214.56469727 253.50952148 C-210.53002621 248.33318362 -206.35947692 243.29443296 -202.09887695 238.30297852 C-198.78747645 234.41995312 -195.57401209 230.4734729 -192.40454102 226.47436523 C-189.58869947 222.94338933 -186.7316751 219.44678029 -183.87719727 215.94702148 C-179.71705061 210.84334877 -175.60996937 205.70464084 -171.56469727 200.50952148 C-167.60109586 195.4233892 -163.49979442 190.48068032 -159.30761719 185.58203125 C-156.0657128 181.77676638 -152.946265 177.89264627 -149.87719727 173.94702148 C-145.19558459 167.93021355 -140.38263518 162.03225136 -135.5246582 156.15722656 C-129.9109152 149.36796272 -124.35475409 142.53321115 -118.80737305 135.68969727 C-117.16573016 133.66749847 -115.52008211 131.6486231 -113.87329102 129.63061523 C-108.71167154 123.30111571 -103.58432072 116.95240554 -98.56469727 110.50952148 C-94.52987688 105.33329574 -90.35948256 100.29443957 -86.09887695 95.30297852 C-82.78747645 91.41995312 -79.57401209 87.4734729 -76.40454102 83.47436523 C-73.58869947 79.94338933 -70.7316751 76.44678029 -67.87719727 72.94702148 C-63.71705061 67.84334877 -59.60996937 62.70464084 -55.56469727 57.50952148 C-51.60109586 52.4233892 -47.49979442 47.48068032 -43.30761719 42.58203125 C-40.06571549 38.77676954 -36.9461872 34.89270573 -33.87719727 30.94702148 C-27.48273533 22.72590369 -20.84582794 14.70684298 -14.18969727 6.69702148 C-13.51962143 5.67974472 -12.84954559 4.66246796 -12.15916443 3.61436462 C-8.71876417 -0.47396722 -5.05560541 -0.11746081 0 0 Z " fill="#00016D" transform="translate(1136.189697265625,269.302978515625)"/>
</svg>
