<svg xmlns="http://www.w3.org/2000/svg" xmlns:xlink="http://www.w3.org/1999/xlink" width="422" zoomAndPan="magnify" viewBox="0 0 316.5 117.749996" height="157" preserveAspectRatio="xMidYMid meet" version="1.0"><defs><g/><clipPath id="6bd5595df0"><path d="M 0.0859375 14 L 46 14 L 46 87 L 0.0859375 87 Z M 0.0859375 14 " clip-rule="nonzero"/></clipPath><clipPath id="1ef5ce148b"><path d="M 60 14 L 106.398438 14 L 106.398438 87 L 60 87 Z M 60 14 " clip-rule="nonzero"/></clipPath><clipPath id="79ffc1ed00"><path d="M 19 59 L 76 59 L 76 100.066406 L 19 100.066406 Z M 19 59 " clip-rule="nonzero"/></clipPath></defs><g clip-path="url(#6bd5595df0)"><path fill="#004aad" d="M 45.734375 50.144531 L 16.269531 14.261719 L 0.125 14.261719 L 29.589844 50.144531 L 0.125 86.027344 L 16.269531 86.027344 Z M 45.734375 50.144531 " fill-opacity="1" fill-rule="nonzero"/></g><g clip-path="url(#1ef5ce148b)"><path fill="#004aad" d="M 90.402344 14.261719 L 60.917969 50.144531 L 90.402344 86.027344 L 106.53125 86.027344 L 77.066406 50.144531 L 106.53125 14.261719 Z M 90.402344 14.261719 " fill-opacity="1" fill-rule="nonzero"/></g><path fill="#004aad" d="M 53.335938 40.898438 L 75.21875 14.261719 L 86.933594 0 L 70.789062 0 L 59.074219 14.261719 L 53.335938 21.261719 L 47.601562 14.261719 L 31.453125 14.261719 Z M 53.335938 40.898438 " fill-opacity="1" fill-rule="nonzero"/><g clip-path="url(#79ffc1ed00)"><path fill="#004aad" d="M 53.335938 59.390625 L 31.453125 86.027344 L 19.722656 100.289062 L 35.867188 100.289062 L 47.601562 86.027344 L 53.335938 79.027344 L 59.074219 86.027344 L 75.21875 86.027344 Z M 53.335938 59.390625 " fill-opacity="1" fill-rule="nonzero"/></g><path fill="#004aad" d="M 53.335938 79.027344 L 61.421875 69.199219 L 53.335938 59.390625 L 45.734375 50.144531 L 31.453125 52.390625 Z M 53.335938 79.027344 " fill-opacity="1" fill-rule="nonzero"/><g fill="#004aad" fill-opacity="1"><g transform="translate(106.57456, 85.858451)"><g><path d="M 25.359375 -10.15625 L 9.0625 -10.15625 C 9.0625 -8.582031 9.570312 -7.414062 10.59375 -6.65625 C 11.613281 -5.894531 12.722656 -5.515625 13.921875 -5.515625 C 15.179688 -5.515625 16.175781 -5.679688 16.90625 -6.015625 C 17.632812 -6.359375 18.46875 -7.023438 19.40625 -8.015625 L 25.015625 -5.21875 C 22.671875 -1.300781 18.785156 0.65625 13.359375 0.65625 C 9.972656 0.65625 7.066406 -0.503906 4.640625 -2.828125 C 2.210938 -5.148438 1 -7.945312 1 -11.21875 C 1 -14.488281 2.210938 -17.289062 4.640625 -19.625 C 7.066406 -21.957031 9.972656 -23.125 13.359375 -23.125 C 16.921875 -23.125 19.816406 -22.09375 22.046875 -20.03125 C 24.285156 -17.976562 25.40625 -15.039062 25.40625 -11.21875 C 25.40625 -10.6875 25.390625 -10.332031 25.359375 -10.15625 Z M 9.28125 -14.453125 L 17.828125 -14.453125 C 17.648438 -15.617188 17.1875 -16.515625 16.4375 -17.140625 C 15.695312 -17.773438 14.742188 -18.09375 13.578125 -18.09375 C 12.296875 -18.09375 11.273438 -17.753906 10.515625 -17.078125 C 9.753906 -16.410156 9.34375 -15.535156 9.28125 -14.453125 Z M 9.28125 -14.453125 "/></g></g></g><g fill="#004aad" fill-opacity="1"><g transform="translate(132.105937, 85.858451)"><g><path d="M 2.625 0 L 2.625 -37.671875 L 10.375 -37.671875 L 10.375 0 Z M 2.625 0 "/></g></g></g><g fill="#004aad" fill-opacity="1"><g transform="translate(144.236446, 85.858451)"><g><path d="M 2.625 0 L 2.625 -37.671875 L 10.375 -37.671875 L 10.375 0 Z M 2.625 0 "/></g></g></g><g fill="#004aad" fill-opacity="1"><g transform="translate(156.366954, 85.858451)"><g><path d="M 25.359375 -10.15625 L 9.0625 -10.15625 C 9.0625 -8.582031 9.570312 -7.414062 10.59375 -6.65625 C 11.613281 -5.894531 12.722656 -5.515625 13.921875 -5.515625 C 15.179688 -5.515625 16.175781 -5.679688 16.90625 -6.015625 C 17.632812 -6.359375 18.46875 -7.023438 19.40625 -8.015625 L 25.015625 -5.21875 C 22.671875 -1.300781 18.785156 0.65625 13.359375 0.65625 C 9.972656 0.65625 7.066406 -0.503906 4.640625 -2.828125 C 2.210938 -5.148438 1 -7.945312 1 -11.21875 C 1 -14.488281 2.210938 -17.289062 4.640625 -19.625 C 7.066406 -21.957031 9.972656 -23.125 13.359375 -23.125 C 16.921875 -23.125 19.816406 -22.09375 22.046875 -20.03125 C 24.285156 -17.976562 25.40625 -15.039062 25.40625 -11.21875 C 25.40625 -10.6875 25.390625 -10.332031 25.359375 -10.15625 Z M 9.28125 -14.453125 L 17.828125 -14.453125 C 17.648438 -15.617188 17.1875 -16.515625 16.4375 -17.140625 C 15.695312 -17.773438 14.742188 -18.09375 13.578125 -18.09375 C 12.296875 -18.09375 11.273438 -17.753906 10.515625 -17.078125 C 9.753906 -16.410156 9.34375 -15.535156 9.28125 -14.453125 Z M 9.28125 -14.453125 "/></g></g></g><g fill="#004aad" fill-opacity="1"><g transform="translate(181.898332, 85.858451)"><g><path d="M 2.625 0 L 2.625 -22.46875 L 10.375 -22.46875 L 10.375 -19.234375 L 10.46875 -19.234375 C 10.53125 -19.347656 10.625 -19.488281 10.75 -19.65625 C 10.882812 -19.832031 11.171875 -20.140625 11.609375 -20.578125 C 12.046875 -21.015625 12.507812 -21.410156 13 -21.765625 C 13.5 -22.117188 14.144531 -22.429688 14.9375 -22.703125 C 15.726562 -22.984375 16.53125 -23.125 17.34375 -23.125 C 18.1875 -23.125 19.015625 -23.003906 19.828125 -22.765625 C 20.648438 -22.535156 21.253906 -22.304688 21.640625 -22.078125 L 22.25 -21.71875 L 19 -15.15625 C 18.039062 -15.96875 16.703125 -16.375 14.984375 -16.375 C 14.046875 -16.375 13.238281 -16.171875 12.5625 -15.765625 C 11.894531 -15.359375 11.421875 -14.863281 11.140625 -14.28125 C 10.867188 -13.695312 10.671875 -13.195312 10.546875 -12.78125 C 10.429688 -12.375 10.375 -12.054688 10.375 -11.828125 L 10.375 0 Z M 2.625 0 "/></g></g></g><g fill="#004aad" fill-opacity="1"><g transform="translate(202.831366, 85.858451)"><g><path d="M 4.15625 -2.78125 C 2.050781 -5.070312 1 -7.878906 1 -11.203125 C 1 -14.535156 2.050781 -17.351562 4.15625 -19.65625 C 6.257812 -21.96875 8.929688 -23.125 12.171875 -23.125 C 15.148438 -23.125 17.601562 -22.191406 19.53125 -20.328125 L 19.53125 -22.46875 L 27.28125 -22.46875 L 27.28125 0 L 19.625 0 L 19.625 -2.546875 L 19.53125 -2.546875 C 17.601562 -0.410156 15.148438 0.65625 12.171875 0.65625 C 8.929688 0.65625 6.257812 -0.488281 4.15625 -2.78125 Z M 10.75 -15.015625 C 9.738281 -14.023438 9.234375 -12.753906 9.234375 -11.203125 C 9.234375 -9.660156 9.710938 -8.398438 10.671875 -7.421875 C 11.640625 -6.441406 12.914062 -5.953125 14.5 -5.953125 C 16.019531 -5.953125 17.265625 -6.445312 18.234375 -7.4375 C 19.210938 -8.4375 19.703125 -9.695312 19.703125 -11.21875 C 19.703125 -12.757812 19.195312 -14.023438 18.1875 -15.015625 C 17.1875 -16.015625 15.957031 -16.515625 14.5 -16.515625 C 13.007812 -16.515625 11.757812 -16.015625 10.75 -15.015625 Z M 10.75 -15.015625 "/></g></g></g><g fill="#004aad" fill-opacity="1"><g transform="translate(231.866232, 85.858451)"><g><path d="M 3.9375 -22.46875 L 3.9375 -30.828125 L 11.6875 -30.828125 L 11.6875 -22.46875 L 16.421875 -22.46875 L 16.421875 -16.5625 L 11.6875 -16.5625 L 11.6875 -9.421875 C 11.6875 -7.347656 12.273438 -6.3125 13.453125 -6.3125 C 13.742188 -6.3125 14.046875 -6.367188 14.359375 -6.484375 C 14.679688 -6.597656 14.929688 -6.710938 15.109375 -6.828125 L 15.375 -7 L 17.296875 -0.75 C 15.628906 0.1875 13.734375 0.65625 11.609375 0.65625 C 10.148438 0.65625 8.894531 0.398438 7.84375 -0.109375 C 6.789062 -0.617188 5.992188 -1.300781 5.453125 -2.15625 C 4.910156 -3.019531 4.519531 -3.925781 4.28125 -4.875 C 4.050781 -5.832031 3.9375 -6.847656 3.9375 -7.921875 L 3.9375 -16.5625 L 0.703125 -16.5625 L 0.703125 -22.46875 Z M 3.9375 -22.46875 "/></g></g></g><g fill="#004aad" fill-opacity="1"><g transform="translate(248.288518, 85.858451)"><g><path d="M 25.359375 -10.15625 L 9.0625 -10.15625 C 9.0625 -8.582031 9.570312 -7.414062 10.59375 -6.65625 C 11.613281 -5.894531 12.722656 -5.515625 13.921875 -5.515625 C 15.179688 -5.515625 16.175781 -5.679688 16.90625 -6.015625 C 17.632812 -6.359375 18.46875 -7.023438 19.40625 -8.015625 L 25.015625 -5.21875 C 22.671875 -1.300781 18.785156 0.65625 13.359375 0.65625 C 9.972656 0.65625 7.066406 -0.503906 4.640625 -2.828125 C 2.210938 -5.148438 1 -7.945312 1 -11.21875 C 1 -14.488281 2.210938 -17.289062 4.640625 -19.625 C 7.066406 -21.957031 9.972656 -23.125 13.359375 -23.125 C 16.921875 -23.125 19.816406 -22.09375 22.046875 -20.03125 C 24.285156 -17.976562 25.40625 -15.039062 25.40625 -11.21875 C 25.40625 -10.6875 25.390625 -10.332031 25.359375 -10.15625 Z M 9.28125 -14.453125 L 17.828125 -14.453125 C 17.648438 -15.617188 17.1875 -16.515625 16.4375 -17.140625 C 15.695312 -17.773438 14.742188 -18.09375 13.578125 -18.09375 C 12.296875 -18.09375 11.273438 -17.753906 10.515625 -17.078125 C 9.753906 -16.410156 9.34375 -15.535156 9.28125 -14.453125 Z M 9.28125 -14.453125 "/></g></g></g><g fill="#004aad" fill-opacity="1"><g transform="translate(273.81989, 85.858451)"><g><path d="M 12.390625 -23.125 C 13.679688 -23.125 14.953125 -22.976562 16.203125 -22.6875 C 17.460938 -22.394531 18.394531 -22.101562 19 -21.8125 L 19.921875 -21.375 L 17.390625 -16.296875 C 15.640625 -17.222656 13.972656 -17.6875 12.390625 -17.6875 C 11.515625 -17.6875 10.894531 -17.59375 10.53125 -17.40625 C 10.164062 -17.21875 9.984375 -16.863281 9.984375 -16.34375 C 9.984375 -16.21875 10 -16.097656 10.03125 -15.984375 C 10.0625 -15.867188 10.117188 -15.757812 10.203125 -15.65625 C 10.296875 -15.550781 10.378906 -15.460938 10.453125 -15.390625 C 10.523438 -15.316406 10.644531 -15.234375 10.8125 -15.140625 C 10.988281 -15.054688 11.128906 -14.992188 11.234375 -14.953125 C 11.335938 -14.910156 11.503906 -14.84375 11.734375 -14.75 C 11.972656 -14.664062 12.148438 -14.601562 12.265625 -14.5625 C 12.378906 -14.519531 12.570312 -14.453125 12.84375 -14.359375 C 13.125 -14.273438 13.335938 -14.21875 13.484375 -14.1875 C 14.390625 -13.925781 15.175781 -13.632812 15.84375 -13.3125 C 16.519531 -12.988281 17.226562 -12.550781 17.96875 -12 C 18.71875 -11.445312 19.296875 -10.742188 19.703125 -9.890625 C 20.117188 -9.046875 20.328125 -8.082031 20.328125 -7 C 20.328125 -1.894531 16.773438 0.65625 9.671875 0.65625 C 8.066406 0.65625 6.539062 0.410156 5.09375 -0.078125 C 3.65625 -0.578125 2.613281 -1.078125 1.96875 -1.578125 L 1 -2.359375 L 4.15625 -7.671875 C 4.394531 -7.460938 4.703125 -7.21875 5.078125 -6.9375 C 5.460938 -6.664062 6.148438 -6.285156 7.140625 -5.796875 C 8.128906 -5.316406 8.988281 -5.078125 9.71875 -5.078125 C 11.320312 -5.078125 12.125 -5.617188 12.125 -6.703125 C 12.125 -7.203125 11.921875 -7.585938 11.515625 -7.859375 C 11.109375 -8.140625 10.414062 -8.453125 9.4375 -8.796875 C 8.457031 -9.148438 7.691406 -9.472656 7.140625 -9.765625 C 5.734375 -10.492188 4.617188 -11.316406 3.796875 -12.234375 C 2.984375 -13.160156 2.578125 -14.378906 2.578125 -15.890625 C 2.578125 -18.171875 3.460938 -19.945312 5.234375 -21.21875 C 7.003906 -22.488281 9.390625 -23.125 12.390625 -23.125 Z M 12.390625 -23.125 "/></g></g></g></svg>